<svg width="288" height="384" viewBox="0 0 288 384" fill="none" xmlns="http://www.w3.org/2000/svg">
<path d="M153.773 0C161.383 1.25 169.083 2.13 176.603 3.82C232.123 16.26 276.583 63.76 285.873 119.77C291.363 152.84 285.433 184.27 273.353 214.9C258.993 251.32 237.783 283.67 213.523 314.17C195.393 336.97 175.663 358.32 154.293 378.14C146.813 385.07 141.203 385.11 133.773 378.12C93.5333 340.27 58.1633 298.51 31.2833 250.02C17.1133 224.46 6.36333 197.62 1.83333 168.56C-10.9067 86.79 44.2934 15.15 119.513 2.18999C124.413 1.34999 129.353 0.73 134.273 0C140.773 0 147.273 0 153.773 0Z" fill="#5E00F2"/>
<path fill-rule="evenodd" clip-rule="evenodd" d="M194.953 157.5L197.013 158.77L224.883 175.89L195.863 188.7C197.843 190.42 203.483 195.95 205.693 204.75C206.653 207.8 206.013 212.78 204.493 215.83C203.133 217.35 195.393 225.47 195.393 225.47C195.393 225.47 190.523 229.97 178.393 228.36C177.803 228 177.373 226.92 177.063 225.48L143.863 239.8L110.993 225.62C110.683 227.05 110.253 228.1 109.673 228.47C97.5134 230.08 92.6335 225.57 92.6335 225.57C92.6335 225.57 84.8735 217.44 83.5135 215.91C81.9935 212.85 81.3534 207.86 82.3134 204.8C84.5534 195.9 90.2934 190.34 92.2234 188.67L63.0435 175.82L91.7935 158.2L93.0435 157.37L64.5435 134.8L119.393 105.05L118.423 100.97C118.423 100.97 114.313 84.38 113.453 73.71L120.203 68.42L116.453 67.66C116.453 67.66 121.443 60.99 126.723 59.04C132.653 56.85 138.963 59.36 138.963 59.36C138.963 59.36 138.413 58.45 136.983 57.97C135.103 57.34 132.213 57.09 132.213 57.09C132.213 57.09 137.803 52.6 142.833 52.87C163.863 55.03 168.443 68.48 168.443 68.48L174.213 73.7C173.353 84.35 170.723 95.36 169.253 100.94L168.163 105.05L223.383 134.84L194.953 157.5ZM190.733 161.11L190.563 161.19L179.413 189.52L188.323 185.59L196.543 164.69L190.733 161.11ZM168.493 189.2L173.343 192.19L174.963 191.48L186.113 163.15L177.203 167.08L168.493 189.2ZM172.743 169.04L163.003 173.34L159.053 183.38L165.533 187.38L172.743 169.04ZM212.853 174.77L208.563 172.12L206.403 177.61L212.853 174.77ZM201.953 179.58L205.603 170.3L199.493 166.53L192.763 183.64L201.953 179.58ZM181.863 222.34C189.773 223.39 192.943 220.45 192.943 220.45C192.943 220.45 198.703 214.19 199.593 213.19C200.583 211.2 200.993 207.94 200.373 205.95C198.603 198.92 194.703 194.13 194.703 194.13L190.773 195.76C190.773 195.76 191.413 204.51 191.153 205.35C190.893 206.19 182.143 212.31 181.963 213.33C181.793 214.36 181.153 221.82 181.863 222.34ZM148.373 230.45L176.413 218.34C176.343 214.99 176.523 211.94 176.733 211.24C177.093 210.03 182.373 205.92 185.133 203.41V193.43L170.763 199.77L148.373 186.02V230.45ZM158.553 175.3L151.213 178.54L156.093 181.55L158.553 175.3ZM135.773 228.58L139.373 222.13V216.67L133.323 227.52L135.773 228.58ZM128.423 225.4L139.373 205.75V200.29L125.973 224.33L128.423 225.4ZM121.063 222.23L139.363 189.39V185.9L137.693 186.92L118.603 221.16L121.063 222.23ZM113.713 219.05L128.463 192.59L123.843 195.42L111.683 217.24C111.683 217.55 111.683 217.86 111.673 218.17L113.713 219.05ZM109.893 209.54L115.763 199.01L113.323 197.93L107.873 207.71C108.623 208.37 109.323 208.99 109.893 209.54ZM108.433 195.79L105.993 194.71L103.363 199.44V203.84C103.493 203.95 103.623 204.07 103.753 204.19L108.433 195.79ZM87.1734 206C86.5434 208 86.9635 211.26 87.9535 213.26C88.8435 214.26 94.6134 220.54 94.6134 220.54C94.6134 220.54 97.7934 223.48 105.713 222.43C106.433 221.91 105.783 214.43 105.603 213.4C105.423 212.37 96.6534 206.24 96.3934 205.4C96.1334 204.56 96.7834 195.78 96.7834 195.78L92.8434 194.15C92.8534 194.15 88.9434 198.96 87.1734 206ZM75.6134 174.87L115.043 192.22L137.123 178.62L97.6935 161.27L75.6134 174.87ZM143.883 69.47C141.373 68.07 136.193 67.96 133.783 66.98C131.363 66.01 130.043 65.07 130.043 65.07C130.043 65.07 129.233 67.81 131.543 69.47C133.853 71.13 141.403 71.02 143.523 72.53C145.643 74.04 145.773 74.44 145.773 74.44C145.773 74.44 146.393 70.87 143.883 69.47ZM149.313 59.7C147.393 58.33 145.193 59.13 145.193 59.13L148.353 62.3C148.573 62.54 148.793 62.8 149.013 63.06L149.023 63.07L149.043 63.1C149.143 63.22 149.253 63.35 149.353 63.47C149.363 63.49 149.383 63.5 149.393 63.52L149.403 63.54C149.503 63.67 149.613 63.8 149.713 63.93C151.923 66.72 152.883 68.71 155.283 69.27C155.293 69.26 154.663 63.4 149.313 59.7ZM162.243 109.53L162.213 76.7C155.143 79.7 146.593 80.33 144.143 80.45L144.203 80.48C144.203 80.48 144.063 80.48 143.823 80.47C143.583 80.48 143.453 80.48 143.453 80.48L143.283 80.44C140.573 80.29 132.313 79.62 125.443 76.7V103.88L125.413 109.4L77.8434 136.4L97.9934 152.21C98.6234 150.54 99.5134 148.72 100.753 147.16C102.103 145.46 105.263 142.79 108.623 140.14V159.04L116.073 162.36V134.53C118.303 132.9 119.853 131.82 119.853 131.82L129.603 146.92L137.773 137.33L143.103 140.88V175.27L143.853 175.61L145.353 174.96V165.75C145.473 165.78 145.603 165.79 145.723 165.79H147.973C148.473 165.79 148.943 165.59 149.303 165.24C149.653 164.89 149.853 164.41 149.853 163.91V163.15C149.853 162.9 149.803 162.66 149.713 162.43C149.623 162.2 149.483 161.99 149.303 161.82C149.133 161.64 148.923 161.51 148.693 161.41C148.463 161.32 148.223 161.27 147.973 161.27H145.723C145.593 161.27 145.473 161.28 145.353 161.31V152.93C145.473 152.96 145.603 152.97 145.723 152.97H147.973C148.223 152.97 148.463 152.92 148.693 152.83C148.923 152.74 149.123 152.6 149.303 152.42C149.473 152.24 149.613 152.04 149.713 151.81C149.803 151.58 149.853 151.34 149.853 151.09V150.33C149.853 150.08 149.803 149.84 149.713 149.61C149.623 149.38 149.483 149.17 149.303 149C149.133 148.82 148.923 148.69 148.693 148.59C148.463 148.5 148.223 148.45 147.973 148.45H145.723C145.593 148.45 145.473 148.46 145.353 148.49V139.9L125.073 126.56L122.073 116C122.073 116 123.233 113.72 125.823 112.98C128.413 112.24 138.573 130.33 138.573 130.33H143.823V130.32H149.073C149.073 130.32 159.233 112.22 161.823 112.95C164.413 113.69 165.573 115.97 165.573 115.97L162.573 126.54L149.073 134.85L160.353 146.18L167.853 132.59C167.853 132.59 169.513 133.66 171.863 135.26V162.39L179.313 159.07V140.53C182.563 142.95 185.583 145.42 186.953 147.13C188.283 148.79 189.203 150.74 189.843 152.5L210.613 136.49L162.243 109.53ZM160.793 98.5C160.883 99.6 160.853 100.71 160.723 101.81C160.403 104.34 158.843 108.39 152.643 108.41C146.453 108.43 146.043 104.05 145.303 102.54C144.553 101.03 143.833 101.07 143.833 101.07C143.833 101.07 143.113 101.03 142.363 102.54C141.613 104.05 141.213 108.43 135.023 108.41C128.833 108.39 127.263 104.34 126.943 101.81C126.813 100.71 126.793 99.6 126.873 98.5L126.233 98.42L126.213 96.67C126.213 96.67 132.713 95.9 136.493 96.67C140.273 97.44 140.883 98 141.633 98.14C142.383 98.28 143.833 98.3 143.833 98.3C143.833 98.3 145.283 98.28 146.033 98.14C146.783 98 147.393 97.45 151.173 96.67C154.953 95.9 161.453 96.67 161.453 96.67L161.433 98.42L160.793 98.5ZM141.973 115.96C141.473 115.96 141.003 115.76 140.643 115.41C140.293 115.06 140.093 114.58 140.093 114.08C140.093 113.58 140.293 113.1 140.643 112.75C140.993 112.4 141.473 112.2 141.973 112.2H145.723C145.973 112.2 146.213 112.25 146.443 112.34C146.673 112.43 146.873 112.57 147.053 112.75C147.223 112.93 147.363 113.13 147.463 113.36C147.553 113.59 147.603 113.83 147.603 114.08C147.603 114.33 147.553 114.57 147.463 114.8C147.373 115.03 147.233 115.24 147.053 115.41C146.883 115.59 146.673 115.72 146.443 115.82C146.213 115.91 145.973 115.96 145.723 115.96H141.973ZM138.223 118.23H149.473C149.973 118.23 150.443 118.43 150.803 118.78C151.153 119.13 151.353 119.61 151.353 120.11C151.353 120.36 151.303 120.6 151.213 120.83C151.123 121.06 150.983 121.27 150.803 121.44C150.633 121.62 150.423 121.75 150.193 121.85C149.963 121.94 149.723 121.99 149.473 121.99H138.223C137.723 121.99 137.253 121.79 136.893 121.44C136.543 121.09 136.343 120.61 136.343 120.11C136.343 119.61 136.543 119.13 136.893 118.78C137.243 118.43 137.723 118.23 138.223 118.23ZM142.723 123.51H144.973C145.223 123.51 145.463 123.56 145.693 123.65C145.923 123.74 146.123 123.88 146.303 124.06C146.473 124.24 146.613 124.44 146.713 124.67C146.803 124.9 146.853 125.14 146.853 125.39C146.853 125.64 146.803 125.88 146.713 126.11C146.623 126.34 146.483 126.55 146.303 126.72C146.133 126.9 145.923 127.03 145.693 127.13C145.463 127.22 145.223 127.27 144.973 127.27H142.723C142.473 127.27 142.233 127.22 142.003 127.13C141.773 127.04 141.573 126.9 141.393 126.72C141.223 126.54 141.083 126.34 140.983 126.11C140.893 125.88 140.843 125.64 140.843 125.39C140.843 124.89 141.043 124.41 141.393 124.06C141.743 123.71 142.223 123.51 142.723 123.51Z" fill="#F6F1FF"/>
</svg>
