<svg width="160" height="40" viewBox="0 0 160 40" fill="none" xmlns="http://www.w3.org/2000/svg">
<path fill-rule="evenodd" clip-rule="evenodd" d="M151.946 24.3877C147.499 24.3877 143.893 20.7295 143.893 16.217C143.893 11.7044 147.499 8.04633 151.946 8.04633C156.394 8.04633 160 11.7046 160 16.217C160 20.7293 156.394 24.3877 151.946 24.3877ZM151.946 12.7014C150.026 12.7014 148.47 14.2952 148.47 16.2613C148.47 18.2274 150.026 19.8213 151.946 19.8213C153.866 19.8213 155.423 18.2274 155.423 16.2613C155.423 14.2952 153.867 12.7014 151.946 12.7014ZM134.431 24.4776C132.001 24.4776 129.846 23.5035 128.508 22.0023L131.051 17.4618C131.051 17.4618 131.741 18.8185 133.727 18.8185C134.966 18.8185 135.971 17.9951 135.971 16.9798V2.47984H141.78V18.4077C141.78 21.76 138.49 24.4776 134.431 24.4776ZM121.756 18.0886H119.688V18.0895H110.938C111.224 18.5716 111.614 18.9779 112.078 19.276C112.541 19.5741 113.066 19.7558 113.609 19.8067C114.153 19.8575 114.7 19.7761 115.208 19.5689C115.715 19.3616 116.169 19.0344 116.533 18.6131L120.372 21.1106C118.903 23.1002 116.561 24.3878 113.923 24.3878C109.475 24.3878 105.87 20.7297 105.87 16.2171C105.87 11.7046 109.475 8.04633 113.923 8.04633C118.37 8.04633 121.975 11.7046 121.975 16.217C121.975 16.8473 121.904 17.4755 121.763 18.0885H121.756V18.0886ZM113.923 12.7014C113.306 12.6996 112.699 12.8678 112.165 13.1888C111.631 13.5098 111.189 13.9721 110.884 14.5284H116.961C116.656 13.9721 116.214 13.5098 115.68 13.1888C115.146 12.8678 114.54 12.6996 113.923 12.7014ZM99.4421 2.38806H105.078V24.3877H99.4421V2.38806ZM90.4224 19.8213C91.1356 19.8239 91.8323 19.5989 92.418 19.177C93.0038 18.7551 93.4502 18.1566 93.6968 17.4626L97.237 20.5711C95.8112 22.8643 93.2921 24.3876 90.4224 24.3876C85.9751 24.3876 82.3699 20.7295 82.3699 16.2169C82.3699 11.7044 85.9751 8.04633 90.4224 8.04633C93.2674 8.04633 95.7678 9.54362 97.2003 11.804L93.6464 14.9246C93.3819 14.2645 92.9343 13.7007 92.3603 13.3049C91.7862 12.9091 91.1118 12.699 90.4224 12.7014C88.5015 12.7014 86.9443 14.2952 86.9443 16.2613C86.9443 18.2274 88.5015 19.8213 90.4224 19.8213ZM75.239 19.8213V15.0776H75.224C75.1595 14.4993 74.8922 13.9658 74.473 13.5785C74.0539 13.1913 73.512 12.9773 72.9507 12.9773C72.3893 12.9773 71.8475 13.1913 71.4283 13.5785C71.0091 13.9658 70.7418 14.4993 70.6773 15.0776H70.6623V24.3877H65.0287V8.41389H70.6623V9.39805C71.7462 8.56108 73.219 8.04633 74.8417 8.04633C78.0877 8.04633 80.7338 10.1049 80.8653 12.6841H80.8706V24.3877H75.239V19.8213ZM52.2222 24.4763C46.4612 24.4763 41.791 21.187 41.791 17.1294C41.791 17.0535 41.7927 16.9778 41.796 16.9024H41.791V2.38806H48.3057V15.4157C48.3057 17.2446 50.0791 18.7272 52.2666 18.7272C54.454 18.7272 56.2272 17.2446 56.2272 15.4157V2.38806H62.6537V16.9024H62.6487C62.6517 16.9778 62.6537 17.0535 62.6537 17.1294C62.6537 21.1869 57.9833 24.4763 52.2222 24.4763Z" fill="white"/>
<path fill-rule="evenodd" clip-rule="evenodd" d="M107.842 35.9714H107.843V35.9717C107.882 36.2497 108.11 36.462 108.376 36.462H108.496C108.57 36.462 108.643 36.4455 108.71 36.4135L109.254 37.277C108.974 37.4914 108.632 37.6071 108.281 37.6065H107.918C107.49 37.6064 107.08 37.4346 106.778 37.1289C106.475 36.8232 106.305 36.4085 106.305 35.9761L106.393 35.9758H106.305V32.8969H105.29V31.4778H106.305V30.1024H107.842V31.4778H108.896V32.8969H107.842V35.9714ZM101.861 36.6304V34.3205C101.861 34.0136 101.74 33.7192 101.526 33.5022C101.311 33.2852 101.02 33.1633 100.716 33.1633C100.412 33.1633 100.121 33.2852 99.9065 33.5022C99.6918 33.7192 99.5712 34.0136 99.5712 34.3205V37.6119H97.9878V31.6547H99.5712V32.1402C99.9991 31.7672 100.546 31.5627 101.111 31.564C102.399 31.564 103.442 32.5991 103.442 33.876C103.442 33.9364 103.44 33.996 103.435 34.0553H103.442V37.6119H101.861V36.6304ZM96.0921 35.1813L94.7391 35.179H91.7187C91.9687 36.2959 93.6324 36.9809 95.2007 35.7137L95.8544 36.6881C95.3181 37.2558 94.2837 37.6055 93.1964 37.6102C92.5905 37.6104 91.9992 37.4217 91.5032 37.07C91.0072 36.7183 90.6305 36.2206 90.4244 35.6446C90.2183 35.0687 90.1929 34.4426 90.3515 33.8515C90.5102 33.2605 90.8452 32.7332 91.311 32.3415C91.7768 31.9498 92.3507 31.7128 92.9546 31.6627C93.5585 31.6126 94.163 31.7518 94.6857 32.0615C95.2085 32.3711 95.6241 32.8361 95.876 33.3931C96.1279 33.9501 96.2038 34.5721 96.0934 35.1742C96.0931 35.1763 96.0921 35.1813 96.0921 35.1813ZM93.2287 32.8787C92.8828 32.8788 92.5462 32.9919 92.269 33.2012C91.9918 33.4104 91.789 33.7046 91.6907 34.0398H94.7671C94.6687 33.7045 94.4658 33.4103 94.1886 33.2011C93.9114 32.9919 93.5747 32.8788 93.2287 32.8787ZM86.3899 36.6304V34.3205C86.3899 33.682 85.9159 33.1645 85.3316 33.1645C84.7472 33.1645 84.2732 33.682 84.2732 34.3205V37.6119H82.8085V34.3205C82.8085 33.682 82.3482 33.1645 81.7805 33.1645C81.2128 33.1645 80.7521 33.682 80.7521 34.3205V37.6119H79.1688V31.6547H80.7521V32.0859C81.1295 31.7506 81.6144 31.5652 82.1168 31.564C82.8622 31.564 83.5192 31.9697 83.9065 32.5859C84.2939 31.9697 84.9509 31.564 85.6962 31.564C86.8869 31.564 87.8523 32.5991 87.8523 33.876C87.8523 33.9364 87.8503 33.996 87.8459 34.0553H87.8523V37.6119H86.3899V36.6304ZM75.123 29.3423H76.7064V37.6119H75.123V29.3423ZM70.9019 29.3423H72.4853V37.6119H70.9019V29.3423ZM67.4719 31.2103C67.2978 31.2103 67.1276 31.1581 66.9828 31.0604C66.8381 30.9627 66.7252 30.8238 66.6586 30.6612C66.5919 30.4987 66.5745 30.3198 66.6084 30.1472C66.6423 29.9746 66.7261 29.8161 66.8492 29.6916C66.9723 29.5672 67.1291 29.4824 67.2998 29.4481C67.4706 29.4137 67.6475 29.4313 67.8084 29.4986C67.9692 29.5659 68.1067 29.6799 68.2034 29.8262C68.3002 29.9725 68.3518 30.1445 68.3519 30.3204C68.3519 30.4373 68.3292 30.553 68.285 30.6609C68.2408 30.7689 68.176 30.867 68.0942 30.9496C68.0125 31.0322 67.9155 31.0978 67.8087 31.1425C67.7019 31.1872 67.5875 31.2103 67.4719 31.2103ZM64.4378 30.6776H64.4368C64.2386 30.6776 64.0485 30.7572 63.9084 30.8989C63.7682 31.0405 63.6895 31.2326 63.6895 31.433V31.4778H64.8331V32.8969H63.6895V37.6119H62.1061V32.8969H61.2291V31.4778H62.1071V31.4316C62.1071 31.0227 62.221 30.6221 62.4357 30.2756C62.6504 29.9291 62.9573 29.6506 63.3213 29.4721C63.6853 29.2937 64.0916 29.2224 64.4938 29.2664C64.896 29.3104 65.2778 29.468 65.5955 29.721L64.9168 30.8531C64.7825 30.7396 64.6129 30.6774 64.4378 30.6776ZM57.535 29.3423H59.1164V37.6119H57.535V29.3423ZM53.4872 37.0361C53.0596 37.409 52.5133 37.6134 51.9486 37.6119C50.6615 37.6119 49.6182 36.5769 49.6182 35.2996C49.6182 35.2396 49.6205 35.18 49.6252 35.1207H49.6182V31.564H51.2015V34.8535V34.8545C51.2015 35.1609 51.3219 35.4547 51.5363 35.6713C51.7506 35.888 52.0413 36.0097 52.3444 36.0097C52.6475 36.0097 52.9382 35.888 53.1525 35.6713C53.3668 35.4547 53.4872 35.1609 53.4872 34.8545C53.4872 34.8542 53.4869 34.8538 53.4869 34.8535H53.4872V31.564H55.0706V37.5213H53.4872V37.0361ZM43.3744 32.8107H46.9808V34.2322H43.3744V37.6119H41.791V29.3423H47.3328V30.7638H43.3744V32.8107ZM68.2645 37.6119H66.6812V31.9198H68.2645V37.6119Z" fill="white"/>
<path fill-rule="evenodd" clip-rule="evenodd" d="M28.2229 22.3941L28.6644 22.6653L34.6269 26.3275L28.4175 29.0677C28.841 29.4358 30.0469 30.6179 30.5216 32.5009C30.7264 33.1535 30.5901 34.2191 30.2653 34.872C29.9748 35.1982 28.3188 36.9338 28.3188 36.9338C28.3188 36.9338 27.2772 37.8964 24.6814 37.5524C24.555 37.4744 24.4628 37.2448 24.3969 36.9356L17.2934 40L10.2598 36.9659C10.1939 37.2711 10.102 37.4975 9.97659 37.5748C7.3749 37.9195 6.33103 36.9546 6.33103 36.9546C6.33103 36.9546 4.67104 35.2145 4.3799 34.8875C4.05452 34.233 3.91796 33.1645 4.12315 32.5101C4.60327 30.605 5.82959 29.4158 6.24346 29.0582L0 26.3088L6.15174 22.5382L6.41967 22.3598L0.320943 17.5315L12.0566 11.1657L11.8495 10.2928C11.8495 10.2928 10.9698 6.74259 10.7858 4.45966L12.2303 3.32883L11.4278 3.16729C11.4278 3.16729 12.4951 1.73975 13.6247 1.32286C14.8944 0.854277 16.2427 1.39027 16.2427 1.39027C16.2427 1.39027 16.1256 1.19597 15.8184 1.09285C15.4163 0.957948 14.7982 0.905626 14.7982 0.905626C14.7982 0.905626 15.9942 -0.0553568 17.0709 0.0025125C21.5714 0.464284 22.5509 3.34184 22.5509 3.34184L23.786 4.45966C23.6022 6.7392 23.04 9.09481 22.7238 10.2875L22.4911 11.1678L34.3061 17.5426L28.2229 22.3941ZM27.3192 23.1654L27.2824 23.1816L24.8965 29.2441L26.8022 28.4038L28.5617 23.9326L27.3192 23.1654ZM22.5607 29.1768L23.5975 29.817L23.9437 29.6642L26.3296 23.6018L24.4241 24.4421L22.5607 29.1768ZM23.4712 24.8622L21.3869 25.7813L20.5414 27.9297L21.9272 28.7855L23.4712 24.8622ZM32.0528 26.0882L31.1353 25.5217L30.6729 26.6968L32.0528 26.0882ZM29.7201 27.1169L30.5018 25.1305L29.1953 24.3237L27.755 27.9836L29.7201 27.1169ZM25.423 36.267C27.1149 36.4916 27.7937 35.8629 27.7937 35.8629C27.7937 35.8629 29.0268 34.5233 29.2162 34.3103C29.4278 33.8839 29.5166 33.1879 29.3831 32.7617C29.0048 31.2581 28.1701 30.2327 28.1701 30.2327L27.3289 30.5811C27.3289 30.5811 27.4668 32.4536 27.4112 32.6334C27.3555 32.8133 25.4839 34.1216 25.4454 34.3408C25.407 34.5601 25.27 36.1566 25.423 36.267ZM18.2564 38.0031L24.255 35.4125C24.24 34.6963 24.2782 34.0427 24.3228 33.8926C24.3997 33.6341 25.5286 32.7546 26.1206 32.217V30.0812L23.0465 31.4379L18.2564 28.4958V38.0031ZM20.4341 26.2016L18.864 26.8941L19.9079 27.5388L20.4341 26.2016ZM15.5608 37.6016L16.3304 36.2207V35.0534L15.0364 37.375L15.5608 37.6016ZM13.9877 36.9222L16.3304 32.7189V31.5515L13.4633 36.6956L13.9877 36.9222ZM12.4145 36.2428L16.3303 29.217V28.4711L15.9737 28.6896L11.8902 36.0165L12.4145 36.2428ZM10.8415 35.5634L13.9973 29.9009L13.0092 30.5064L10.4069 35.1756C10.4066 35.2411 10.4059 35.3075 10.4047 35.3749L10.8415 35.5634ZM10.0236 33.5289L11.2793 31.276L10.757 31.0459L9.59107 33.1377C9.75158 33.2773 9.90101 33.4109 10.0237 33.5289H10.0236ZM9.71224 30.5858L9.18974 30.3557L8.62636 31.3667V32.3085C8.65365 32.3326 8.68174 32.3574 8.71061 32.3826L9.71224 30.5858ZM5.16129 32.7717C5.02754 33.199 5.11654 33.8968 5.32849 34.3243C5.51824 34.5378 6.75418 35.8811 6.75418 35.8811C6.75418 35.8811 7.43452 36.511 9.13018 36.286C9.28356 36.1755 9.14619 34.5743 9.10768 34.3548C9.06917 34.1352 7.19302 32.823 7.13738 32.6429C7.08173 32.4628 7.21988 30.5853 7.21988 30.5853L6.37688 30.2361C6.37688 30.2361 5.54063 31.2641 5.1615 32.7717H5.16129ZM2.68824 26.1096L11.1254 29.8225L15.8488 26.912L7.41161 23.1991L2.68824 26.1096ZM17.2963 3.55781C16.7589 3.25755 15.6518 3.23441 15.1344 3.0261C14.617 2.81779 14.3337 2.6171 14.3337 2.6171C14.3337 2.6171 14.1605 3.20365 14.654 3.55781C15.1475 3.91197 16.7627 3.88872 17.2162 4.21222C17.6696 4.53572 17.6966 4.62123 17.6966 4.62123C17.6966 4.62123 17.8337 3.85807 17.2963 3.55781ZM18.4569 1.46786C18.0462 1.17499 17.5762 1.34515 17.5762 1.34515L18.2528 2.02363C18.2991 2.07558 18.3463 2.12982 18.3939 2.18596L18.3961 2.18858L18.4009 2.19424C18.423 2.22039 18.4451 2.24696 18.4672 2.27396C18.4698 2.27727 18.4726 2.28061 18.4754 2.28392L18.4783 2.2875C18.5007 2.31495 18.5231 2.34275 18.5455 2.3709C19.0181 2.96773 19.2247 3.39382 19.7381 3.5128C19.7381 3.5128 19.6037 2.26021 18.4569 1.46786ZM21.2238 12.1294L21.2181 5.10585C19.7051 5.74806 17.8759 5.88184 17.3524 5.90776L17.3662 5.91362C17.3662 5.91362 17.3373 5.91294 17.2859 5.91078C17.2346 5.91294 17.2057 5.91362 17.2057 5.91362L17.1702 5.90518C16.5899 5.87363 14.823 5.72955 13.3538 5.1059V10.9215L13.3472 12.1031L3.16972 17.8805L7.48032 21.2632C7.6152 20.9055 7.80562 20.5165 8.07074 20.1829C8.35949 19.8196 9.03474 19.247 9.75503 18.6811V22.7252L11.3486 23.4351V17.4795C11.826 17.1314 12.1575 16.8988 12.1575 16.8988L14.244 20.1297L15.9926 18.0784L17.1329 18.8373V26.1963L17.2934 26.2685L17.6144 26.13V24.1602C17.6408 24.1656 17.6677 24.1683 17.6946 24.1683H18.1761C18.2825 24.1683 18.3846 24.1258 18.4598 24.05C18.5351 23.9743 18.5774 23.8716 18.5774 23.7645V23.6029C18.5774 23.5499 18.567 23.4974 18.5468 23.4484C18.5267 23.3994 18.4971 23.3549 18.4598 23.3174C18.4226 23.2799 18.3783 23.2501 18.3297 23.2298C18.281 23.2095 18.2288 23.1991 18.1761 23.1991H17.6946C17.6676 23.1991 17.6408 23.2018 17.6144 23.2072V21.414C17.6408 21.4194 17.6676 21.4222 17.6946 21.4222H18.1761C18.2288 21.4222 18.281 21.4117 18.3297 21.3914C18.3784 21.3711 18.4226 21.3413 18.4599 21.3038C18.4971 21.2663 18.5267 21.2218 18.5468 21.1728C18.567 21.1237 18.5774 21.0712 18.5774 21.0182V20.8566C18.5774 20.8036 18.567 20.7511 18.5468 20.7021C18.5267 20.6531 18.4971 20.6086 18.4598 20.5711C18.4226 20.5336 18.3783 20.5038 18.3297 20.4835C18.281 20.4632 18.2288 20.4528 18.1761 20.4528H17.6946C17.6676 20.4528 17.6408 20.4555 17.6144 20.4609V18.6231L13.2754 15.7698L12.6334 13.5106C12.6334 13.5106 12.8808 13.0225 13.4359 12.8651C13.991 12.7078 16.1643 16.5767 16.1643 16.5767H17.2877V16.5756H18.4112C18.4112 16.5756 20.5847 12.7026 21.1397 12.8601C21.6947 13.0176 21.9422 13.5063 21.9422 13.5063L21.3002 15.7679L18.4113 17.5449L20.8243 19.9681L22.4292 17.0602C22.4292 17.0602 22.7836 17.2889 23.2877 17.6307V23.4351L24.8813 22.7252V18.7586C25.5758 19.2763 26.2228 19.8048 26.5159 20.1715C26.8001 20.5266 26.9982 20.9447 27.1343 21.3202L31.5776 17.8941L21.2238 12.1294ZM20.9147 9.77018C20.9329 10.0061 20.9281 10.2433 20.9004 10.4783C20.8323 11.0193 20.4971 11.886 19.1718 11.8908C17.8464 11.8956 17.76 10.9574 17.6003 10.6352C17.4405 10.313 17.2859 10.3213 17.2859 10.3213C17.2859 10.3213 17.1314 10.313 16.9716 10.6352C16.8118 10.9574 16.7254 11.8956 15.4001 11.8908C14.0747 11.886 13.7396 11.0193 13.6714 10.4783C13.6437 10.2433 13.639 10.0061 13.6572 9.77018L13.5193 9.75406L13.5144 9.37963C13.5144 9.37963 14.9052 9.21441 15.7145 9.37963C16.5238 9.54485 16.6538 9.66317 16.8146 9.69351C16.9754 9.72385 17.286 9.72821 17.286 9.72821C17.286 9.72821 17.5967 9.72388 17.7575 9.69351C17.9182 9.66314 18.0482 9.54485 18.8575 9.37963C19.6668 9.21441 21.0577 9.37963 21.0577 9.37963L21.0527 9.75406L20.9147 9.77018ZM16.8866 13.5063C16.7802 13.5063 16.6781 13.4638 16.6028 13.388C16.5276 13.3123 16.4853 13.2096 16.4853 13.1025C16.4853 12.9954 16.5276 12.8926 16.6028 12.8169C16.6781 12.7412 16.7802 12.6986 16.8866 12.6986H17.6891C17.7418 12.6986 17.794 12.7091 17.8427 12.7294C17.8913 12.7497 17.9356 12.7794 17.9728 12.8169C18.0101 12.8544 18.0396 12.8989 18.0598 12.9479C18.08 12.9969 18.0903 13.0494 18.0903 13.1025C18.0903 13.1555 18.08 13.208 18.0598 13.257C18.0396 13.306 18.0101 13.3505 17.9728 13.388C17.9356 13.4255 17.8913 13.4553 17.8427 13.4756C17.794 13.4959 17.7418 13.5063 17.6891 13.5063H16.8866ZM16.0841 13.9909H18.4915C18.598 13.9909 18.7 14.0334 18.7753 14.1092C18.8505 14.1849 18.8928 14.2876 18.8928 14.3947C18.8928 14.4478 18.8824 14.5003 18.8622 14.5493C18.8421 14.5983 18.8125 14.6428 18.7753 14.6803C18.738 14.7178 18.6938 14.7476 18.6451 14.7679C18.5964 14.7881 18.5442 14.7986 18.4915 14.7986H16.0841C15.9777 14.7986 15.8756 14.756 15.8004 14.6803C15.7251 14.6046 15.6828 14.5018 15.6829 14.3947C15.6829 14.2876 15.7251 14.1849 15.8004 14.1092C15.8756 14.0334 15.9777 13.9909 16.0841 13.9909ZM17.0471 15.1217H17.5285C17.5812 15.1217 17.6334 15.1321 17.6821 15.1524C17.7308 15.1727 17.775 15.2025 17.8123 15.24C17.8496 15.2775 17.8791 15.322 17.8993 15.371C17.9194 15.42 17.9298 15.4725 17.9298 15.5256C17.9298 15.5786 17.9194 15.6311 17.8993 15.6801C17.8791 15.7291 17.8496 15.7736 17.8123 15.8111C17.775 15.8486 17.7308 15.8784 17.6821 15.8987C17.6334 15.919 17.5812 15.9294 17.5285 15.9294H17.0471C16.9944 15.9294 16.9422 15.919 16.8935 15.8987C16.8448 15.8784 16.8006 15.8486 16.7633 15.8111C16.7261 15.7736 16.6965 15.7291 16.6763 15.6801C16.6562 15.6311 16.6458 15.5786 16.6458 15.5256C16.6458 15.4185 16.6881 15.3157 16.7633 15.24C16.8386 15.1643 16.9406 15.1217 17.0471 15.1217V15.1217Z" fill="white"/>
</svg>
